<?xml version="1.0" encoding="utf-8"?>
<!-- Generator: Adobe Illustrator 17.0.0, SVG Export Plug-In . SVG Version: 6.00 Build 0)  -->
<!DOCTYPE svg PUBLIC "-//W3C//DTD SVG 1.1//EN" "http://www.w3.org/Graphics/SVG/1.1/DTD/svg11.dtd">
<svg version="1.1" id="Layer_1" xmlns="http://www.w3.org/2000/svg" xmlns:xlink="http://www.w3.org/1999/xlink" x="0px" y="0px"
	 width="150px" height="150px" xml:space="preserve">
<g>
	<path fill="#FFFFFF" d="M31.3,135.5l0.6-1c0.1-0.2,0.3-0.1,0.4-0.1c0,0,0.9,0.7,1.8,0.7c0.5,0,0.9-0.3,0.9-0.7
		c0-0.5-0.4-0.9-1.3-1.3c-1.1-0.4-2.4-1.3-2.4-2.7c0-1.2,1-2.5,2.9-2.5c1.3,0,2.3,0.7,2.7,0.9c0.1,0.1,0.1,0.3,0.1,0.4l-0.6,1
		c-0.1,0.1-0.3,0.2-0.4,0.2c-0.1-0.1-1-0.7-1.8-0.7c-0.4,0-0.8,0.3-0.8,0.6c0,0.5,0.4,0.8,1.4,1.2c1,0.4,2.5,1.1,2.5,2.8
		c0,1.3-1.1,2.6-2.9,2.6c-1.6,0-2.5-0.7-2.8-1C31.2,135.8,31.2,135.7,31.3,135.5z"/>
	<path fill="#FFFFFF" d="M39.5,128.3c0-0.1,0.1-0.2,0.2-0.2h5.1c0.1,0,0.2,0.1,0.2,0.2v1.4c0,0.1-0.1,0.2-0.2,0.2h-3.4v1.5h2.8
		c0.1,0,0.2,0.1,0.2,0.2v1.4c0,0.1-0.1,0.2-0.2,0.2h-2.8v1.7h3.4c0.1,0,0.2,0.1,0.2,0.2v1.4c0,0.1-0.1,0.2-0.2,0.2h-5.1
		c-0.1,0-0.2-0.1-0.2-0.2V128.3z"/>
	<path fill="#FFFFFF" d="M47.7,128.3c0-0.1,0.1-0.2,0.2-0.2h3.7c1.5,0,2.7,1.2,2.7,2.7c0,1.1-0.8,2.1-1.8,2.5l1.7,3.2
		c0.1,0.2,0,0.4-0.2,0.4h-1.7c-0.1,0-0.2-0.1-0.2-0.1l-1.7-3.3h-0.9v3.2c0,0.1-0.1,0.2-0.2,0.2h-1.5c-0.1,0-0.2-0.1-0.2-0.2V128.3z
		 M51.5,131.7c0.5,0,0.9-0.5,0.9-1s-0.4-0.9-0.9-0.9h-1.8v1.9H51.5z"/>
	<path fill="#FFFFFF" d="M57,128.3c0-0.1,0.1-0.2,0.2-0.2h1.5c0.1,0,0.2,0.1,0.2,0.2v8.2c0,0.1-0.1,0.2-0.2,0.2h-1.5
		c-0.1,0-0.2-0.1-0.2-0.2V128.3z"/>
	<path fill="#FFFFFF" d="M65.8,127.9c2.5,0,4.5,2,4.5,4.5c0,2.5-2,4.5-4.5,4.5s-4.5-2-4.5-4.5C61.4,129.9,63.3,127.9,65.8,127.9z
		 M65.8,134.9c1.4,0,2.5-1.1,2.5-2.5c0-1.4-1.1-2.5-2.5-2.5c-1.4,0-2.5,1.1-2.5,2.5C63.3,133.7,64.5,134.9,65.8,134.9z"/>
	<path fill="#FFFFFF" d="M72.6,128.3c0-0.1,0.1-0.2,0.2-0.2h1.5c0.1,0,0.2,0.1,0.2,0.2v5c0,0.9,0.6,1.6,1.5,1.6
		c0.9,0,1.6-0.7,1.6-1.6v-5c0-0.1,0.1-0.2,0.2-0.2h1.5c0.1,0,0.2,0.1,0.2,0.2v5.1c0,1.9-1.6,3.5-3.6,3.5c-2,0-3.5-1.6-3.5-3.5V128.3
		z"/>
	<path fill="#FFFFFF" d="M82.1,135.5l0.6-1c0.1-0.2,0.3-0.1,0.4-0.1c0,0,0.9,0.7,1.8,0.7c0.5,0,0.9-0.3,0.9-0.7
		c0-0.5-0.4-0.9-1.3-1.3c-1.1-0.4-2.4-1.3-2.4-2.7c0-1.2,1-2.5,2.9-2.5c1.3,0,2.3,0.7,2.7,0.9c0.1,0.1,0.1,0.3,0.1,0.4l-0.6,1
		c-0.1,0.1-0.3,0.2-0.4,0.2c-0.1-0.1-1-0.7-1.8-0.7c-0.4,0-0.8,0.3-0.8,0.6c0,0.5,0.4,0.8,1.4,1.2c1,0.4,2.5,1.1,2.5,2.8
		c0,1.3-1.1,2.6-2.9,2.6c-1.6,0-2.5-0.7-2.8-1C82.1,135.8,82,135.7,82.1,135.5z"/>
	<path fill="#FFFFFF" d="M94,128.3c0-0.1,0.1-0.2,0.2-0.2h5.1c0.1,0,0.2,0.1,0.2,0.2v1.4c0,0.1-0.1,0.2-0.2,0.2H96v1.8h2.8
		c0.1,0,0.2,0.1,0.2,0.2v1.4c0,0.1-0.1,0.2-0.2,0.2H96v3c0,0.1-0.1,0.2-0.2,0.2h-1.5c-0.1,0-0.2-0.1-0.2-0.2V128.3z"/>
	<path fill="#FFFFFF" d="M105.8,127.9c2.5,0,4.5,2,4.5,4.5c0,2.5-2,4.5-4.5,4.5c-2.5,0-4.5-2-4.5-4.5
		C101.3,129.9,103.3,127.9,105.8,127.9z M105.8,134.9c1.4,0,2.5-1.1,2.5-2.5c0-1.4-1.1-2.5-2.5-2.5c-1.4,0-2.5,1.1-2.5,2.5
		C103.3,133.7,104.4,134.9,105.8,134.9z"/>
	<path fill="#FFFFFF" d="M114.4,132.3l-2.5-3.9c-0.1-0.2,0-0.3,0.2-0.3h1.8c0.1,0,0.2,0.1,0.2,0.1l1.4,2.3h0l1.5-2.3
		c0,0,0.1-0.1,0.2-0.1h1.8c0.2,0,0.3,0.2,0.2,0.3l-2.5,3.9l2.6,4.1c0.1,0.2,0,0.3-0.2,0.3h-1.7c-0.1,0-0.2,0-0.2-0.1l-1.6-2.5h0
		l-1.6,2.5c0,0-0.1,0.1-0.2,0.1H112c-0.2,0-0.3-0.2-0.2-0.3L114.4,132.3z"/>
</g>
<path opacity="2.000000e-02" fill="#FFFFFF" d="M74.9,108.9l-1-0.6c0,0,0.1,0.1,0.1,0.1L74.9,108.9L74.9,108.9z"/>
<line opacity="0.4" fill="#FFFFFF" x1="75.4" y1="43.7" x2="75.4" y2="43.7"/>
<polygon opacity="0.5" fill="#FFFFFF" points="74.7,82.2 74.7,82.2 74.7,82.2 "/>
<polygon opacity="0.5" fill="#FFFFFF" points="74.6,82.2 74.6,82.2 74.6,82.2 "/>
<polygon opacity="0.5" fill="#FFFFFF" points="74.7,82.2 74.7,82.2 74.7,82.2 "/>
<polygon opacity="0.5" fill="#FFFFFF" points="74.7,82.2 74.7,82.2 74.7,82.2 "/>
<polygon opacity="0.5" fill="#FFFFFF" points="74.6,82.1 74.6,82.2 74.7,82.2 "/>
<polygon opacity="0.3" fill="#FFFFFF" points="75,43 62.9,40.4 52.1,29.4 38.5,23.4 39.6,43.2 41.6,70.1 38.2,84.9 29.8,92.8 
	37.3,99.1 36.1,106.2 54.9,105.1 70.5,116 75,116 75,43 "/>
<polygon fill="none" points="41.3,66.3 41.3,66.3 41.3,66.3 "/>
<line opacity="0.5" fill="#FFFFFF" x1="39.7" y1="46" x2="38.7" y2="29.3"/>
<polygon opacity="0.5" fill="#FFFFFF" points="68.7,62.6 75,52.7 57.6,46.8 60.1,51.8 "/>
<polygon opacity="0.5" fill="#FFFFFF" points="73.5,68.8 66.4,66.3 65.8,74.8 68.5,75.9 75,71.3 75,70.8 "/>
<polygon opacity="0.5" fill="#FFFFFF" points="51.7,71.6 52.2,78.4 62.1,73.2 "/>
<polygon opacity="0.5" fill="#FFFFFF" points="66.5,85.1 66.7,85.1 67.8,84.9 67.8,84.9 "/>
<polygon opacity="0.5" fill="#FFFFFF" points="58.6,94.7 64.2,101 63,92 "/>
<polygon opacity="0.5" fill="#FFFFFF" points="65.7,77.7 62.1,73.2 62.4,79.2 65.7,77.7 "/>
<polygon opacity="0.5" fill="#FFFFFF" points="62.4,79.2 56.2,80.4 56.8,82.6 56.4,80.5 "/>
<polygon opacity="0.5" fill="#FFFFFF" points="52.8,61.3 41.3,66.3 41.3,66.3 62.1,73.2 "/>
<polygon opacity="0.6" fill="#FFFFFF" points="46.7,86 44.6,81.7 38.3,84.5 38.2,84.9 37.3,99.1 46.7,86 "/>
<polygon opacity="0.5" fill="#FFFFFF" points="41.6,70.1 38.3,84.5 51.7,71.6 "/>
<polygon opacity="0.5" fill="#FFFFFF" points="74.7,113.6 68.9,112 68,112 64.9,109.9 64.9,109.9 61,107.2 54.9,105.1 70.5,116 
	75,116 75,113.5 "/>
<polyline opacity="0.6" fill="#FFFFFF" points="46.7,102.3 53.3,89.3 37.3,99.1 54.9,105 62.2,101.1 64.2,101 52.5,98.5 58.3,94.8 
	50.9,98 53.3,89.3 "/>
<polygon opacity="0.4" fill="#FFFFFF" points="74.6,82.2 63,92 72.4,100.9 "/>
<polygon opacity="0.2" fill="#FFFFFF" points="74.6,82.2 74.6,82.2 65.7,77.8 67.8,84.9 67.8,84.9 67.8,86.1 "/>
<path opacity="0.1" fill="#FFFFFF" d="M64.5,86C64.6,86,64.6,86,64.5,86l2.2-0.7l-0.2,0.1L64.5,86z"/>
<path opacity="0.2" fill="#FFFFFF" d="M67.8,84.9l-0.2,0.2l-4.2,2.4c0,0-3-1.9-3.1-1.9l-3.5-3l-0.6-2.2l6.4-1.2l-10.4-0.8l1.1,11
	L63,92L67.8,84.9z"/>
<polygon opacity="0.1" fill="#FFFFFF" points="67.8,84.9 63,92 67.8,86.1 "/>
<line fill="#FFFFFF" x1="67.8" y1="84.9" x2="65.9" y2="84"/>
<polygon fill="#FFFFFF" points="67.8,84.9 65.2,80.4 65.2,80.4 62.4,79.2 56.4,80.5 56.8,82.8 60.2,86 64.6,86 66.5,85.3 "/>
<polygon fill="#FFFFFF" points="65.2,80.4 65.2,80.4 65.2,80.4 "/>
<polygon opacity="0.9" fill="#FFFFFF" points="64.2,101 62.2,101.1 61,107.2 69.3,103.6 "/>
<path opacity="0.9" fill="#FFFFFF" d="M75,111.8c0-0.1,0-2.9,0-2.9l-3.2-1.9l-2.5-3.4l-4.3,6.3l3.2,2.1l0.9,0L75,111.8z"/>
<line opacity="0.9" fill="#FFFFFF" x1="40.2" y1="51.8" x2="39.7" y2="46"/>
<polygon opacity="0.9" fill="#FFFFFF" points="52.8,61.3 54.1,44 38.5,23.4 40.2,51.8 "/>
<polygon opacity="0.4" fill="#FFFFFF" points="67.8,84.9 65.8,78.1 65.7,77.8 65.7,77.7 62.4,79.2 65.2,80.4 "/>
<polygon opacity="0.1" fill="#FFFFFF" points="52.4,36.3 52.3,29.5 39,23.5 39,23.5 "/>
<polygon opacity="0.4" fill="#FFFFFF" points="62.9,40.8 52.1,29.5 52.2,36 "/>
<polygon opacity="0.1" fill="#FFFFFF" points="57.6,46.8 62.9,40.8 52.2,36 "/>
<polygon opacity="0.4" fill="#FFFFFF" points="75,43.7 62.9,40.8 57.6,46.8 "/>
<polygon opacity="0.1" fill="#FFFFFF" points="75,52.4 75,43 75,43 57.8,46.4 57.4,46.6 75,52.7 "/>
<polygon opacity="0.7" fill="#FFFFFF" points="75,53 75,52.7 68.6,62.6 75,70.8 "/>
<polygon opacity="0.4" fill="#FFFFFF" points="73.6,68.8 60.1,51.8 52.8,61.3 "/>
<polygon opacity="0.6" fill="#FFFFFF" points="58.6,50.1 60.1,51.8 58.7,49 58,47.6 52.4,36.4 38.7,23.5 38.5,23.4 54.1,44.6 "/>
<polygon opacity="0.4" fill="#FFFFFF" points="60,51.8 52.8,61.3 60,51.8 "/>
<polygon opacity="0.5" fill="#FFFFFF" points="54.1,44 52.8,61.3 60.1,51.8 "/>
<polygon opacity="0.6" fill="#FFFFFF" points="40.2,51.8 41.3,66.3 52.8,61.3 "/>
<polygon opacity="0.2" fill="#FFFFFF" points="62.1,73.2 62.1,73.2 62.1,73.2 "/>
<polygon opacity="0.2" fill="#FFFFFF" points="65.9,74.8 65.9,74.8 66.5,66.3 52.8,61.3 65.6,77.7 "/>
<polygon opacity="0.2" fill="#FFFFFF" points="66.5,66.1 66.3,66 66.5,66.1 "/>
<polygon opacity="0.1" fill="#FFFFFF" points="62.1,73.1 52.3,78.3 62.4,79.2 "/>
<polygon opacity="0.2" fill="#FFFFFF" points="62.1,73.2 62.1,73.2 62.1,73.2 "/>
<path opacity="5.000000e-02" fill="#FFFFFF" d="M64.6,86C64.6,86,64.6,86,64.6,86h-4.4c0.1,0,3.1,1.7,3.1,1.7l4.2-2.5l0.2,0L64.6,86
	z"/>
<line fill="#A32845" x1="66.4" y1="84.2" x2="66.4" y2="84.2"/>
<polygon opacity="0.4" fill="#FFFFFF" points="41.3,66.3 41.3,66.3 41.3,66.3 "/>
<polygon opacity="0.4" fill="#FFFFFF" points="62.1,73.2 41.3,66.3 41.3,66.3 51.7,71.6 62.1,73.2 "/>
<polygon opacity="0.4" fill="#FFFFFF" points="62.1,73.2 62.1,73.2 62.1,73.2 "/>
<polygon opacity="0.4" fill="#FFFFFF" points="38.3,84.5 38.3,84.5 38.3,84.5 "/>
<polygon opacity="0.7" fill="#FFFFFF" points="44.6,81.7 52.2,78.4 51.7,71.6 38.3,84.5 38.3,84.5 44.6,81.7 "/>
<polygon opacity="0.4" fill="#FFFFFF" points="51.7,72 41.6,70.5 51.7,72 "/>
<polygon opacity="0.4" fill="#FFFFFF" points="41.3,66.2 41.6,70 41.3,66.2 "/>
<polygon opacity="0.8" fill="#FFFFFF" points="41.3,66.3 41.6,70.1 51.7,71.6 "/>
<polygon opacity="0.8" fill="#FFFFFF" points="36.1,106.2 54.9,105 37.3,99.1 "/>
<polygon opacity="0.8" fill="#FFFFFF" points="45.5,94.1 46.7,86 37.3,99.1 53.3,89.3 "/>
<polygon opacity="0.8" fill="#FFFFFF" points="44.6,81.7 46.7,86 53.3,89.3 52.2,78.4 "/>
<polygon opacity="0.4" fill="#FFFFFF" points="44.6,81.7 44.6,81.7 52.2,78.4 "/>
<polygon opacity="0.8" fill="#FFFFFF" points="32.2,94.9 32.2,94.9 29.8,92.8 "/>
<polygon opacity="0.4" fill="#FFFFFF" points="29.8,92.8 37.3,99.1 38.2,84.9 "/>
<polygon opacity="0.4" fill="#FFFFFF" points="46.7,86 46.7,86 46.7,86 "/>
<polygon opacity="0.5" fill="#FFFFFF" points="46.7,86 45.5,94.1 53.3,89.3 46.7,86 "/>
<polygon opacity="0.4" fill="#FFFFFF" points="58.6,94.7 63,92 53.3,89.3 50.9,98 58.4,94.8 58.6,94.7 "/>
<polygon opacity="0.4" fill="#FFFFFF" points="58.6,94.7 50.9,98 53.3,89.3 46.7,102.3 "/>
<polygon opacity="0.4" fill="#FFFFFF" points="58.6,94.7 58.4,94.8 52.5,98.5 64.2,101 64.2,101 "/>
<polygon opacity="0.4" fill="#FFFFFF" points="64.2,101 64.2,101 64.2,101 "/>
<polygon opacity="0.4" fill="#FFFFFF" points="58.6,94.7 58.4,94.8 58.6,94.7 "/>
<polygon opacity="0.4" fill="#FFFFFF" points="62.2,101.1 54.9,105 61,107.2 "/>
<polygon opacity="0.5" fill="#FFFFFF" points="74.6,82.2 67.8,86.1 63,92 74.6,82.2 "/>
<polygon opacity="0.5" fill="#FFFFFF" points="68.6,75.9 65.7,77.8 74.6,82.2 74.6,82.1 "/>
<polygon opacity="0.5" fill="#FFFFFF" points="65.7,77.7 65.7,77.8 65.7,77.7 "/>
<polygon opacity="0.3" fill="#FFFFFF" points="65.9,74.8 65.7,77.7 68.6,75.9 "/>
<polygon opacity="0.4" fill="#FFFFFF" points="65.9,74.8 65.7,77.7 65.9,74.8 "/>
<path opacity="0.5" fill="#FFFFFF" d="M66.6,63.5"/>
<polygon opacity="0.5" fill="#FFFFFF" points="57.6,46.8 57.6,46.8 57.6,46.8 "/>
<polygon opacity="0.8" fill="#FFFFFF" points="63,92.1 64.2,101 69.4,103 69.6,103.4 72.4,101 "/>
<polygon opacity="0.4" fill="#FFFFFF" points="64.2,101 69.3,103.6 69.6,103.4 69.4,103 "/>
<polygon fill="#F9F9F9" points="61.1,107.2 61,107.2 64.9,109.9 65,109.9 61.1,107.2 "/>
<polygon fill="#F9F9F9" points="61.1,107.2 61.1,107.2 65,109.9 69.3,103.6 "/>
<line opacity="0.4" fill="#FFFFFF" x1="75.1" y1="43.7" x2="75.1" y2="43.7"/>
<line opacity="0.4" fill="#FFFFFF" x1="75.2" y1="43.7" x2="75.2" y2="43.7"/>
<line opacity="0.4" fill="#FFFFFF" x1="75.5" y1="43.7" x2="75.5" y2="43.7"/>
<path opacity="0.2" fill="#FFFFFF" d="M75.6,53"/>
<path opacity="0.2" fill="#FFFFFF" d="M75.3,52.5"/>
<line opacity="0.4" fill="#FFFFFF" x1="75.2" y1="43.7" x2="75.2" y2="43.7"/>
<path opacity="0.5" fill="#FFFFFF" d="M75.3,52.7"/>
<line opacity="0.4" fill="#FFFFFF" x1="75.5" y1="43.7" x2="75.5" y2="43.7"/>
<line opacity="0.4" fill="#FFFFFF" x1="75.4" y1="43.7" x2="75.4" y2="43.7"/>
<line opacity="0.4" fill="#FFFFFF" x1="75.1" y1="43.7" x2="75.1" y2="43.7"/>
<path opacity="0.2" fill="#FFFFFF" d="M75,53"/>
<path opacity="0.2" fill="#FFFFFF" d="M75.3,52.5"/>
<line opacity="0.4" fill="#FFFFFF" x1="74.9" y1="43.7" x2="74.9" y2="43.7"/>
<polygon opacity="0.5" fill="#FFFFFF" points="75.6,82.2 75.6,82.2 75.6,82.2 "/>
<polygon opacity="0.5" fill="#FFFFFF" points="75.6,82.2 75.6,82.2 75.6,82.2 "/>
<polygon opacity="0.5" fill="#FFFFFF" points="75.6,82.2 75.6,82.2 75.6,82.2 "/>
<path opacity="0.4" fill="#FFFFFF" d="M75.7,43.7"/>
<polygon opacity="0.3" fill="#FFFFFF" points="75.3,43 87.4,40.4 98.2,29.4 111.8,23.4 110,51.9 108.6,70.1 112.1,84.9 120.5,92.8 
	113,99.1 114.2,106.2 95.4,105.1 79.8,116 75,116 75,43 "/>
<path opacity="2.000000e-02" fill="#FFFFFF" d="M75.3,108.9l1-0.6c0,0-0.1,0.1-0.1,0.1L75.3,108.9L75.3,108.9z"/>
<polygon opacity="0.5" fill="#FFFFFF" points="75.7,82.2 75.7,82.2 75.7,82.2 "/>
<polygon opacity="0.5" fill="#FFFFFF" points="75.7,82.1 75.7,82.2 75.6,82.2 "/>
<polygon fill="none" points="108.9,66.3 108.9,66.3 108.9,66.3 "/>
<polygon opacity="0.5" fill="#FFFFFF" points="81.8,62.3 75,52.7 92.7,46.8 90.2,51.8 "/>
<polygon opacity="0.5" fill="#FFFFFF" points="76.6,68.8 83.8,66.3 84.4,74.8 81.7,75.9 75,71.3 75,70.8 "/>
<polygon opacity="0.5" fill="#FFFFFF" points="98.6,71.6 98.1,78.4 88.2,73.2 "/>
<polygon opacity="0.5" fill="#FFFFFF" points="83.8,85.1 83.6,85.1 82.5,84.9 82.5,84.9 "/>
<polygon opacity="0.5" fill="#FFFFFF" points="91.7,94.7 86.1,101 87.3,92 "/>
<polygon opacity="0.5" fill="#FFFFFF" points="84.6,77.7 88.2,73.2 87.8,79.2 84.6,77.7 "/>
<polygon opacity="0.5" fill="#FFFFFF" points="87.8,79.2 94.1,80.4 93.5,82.6 93.9,80.5 "/>
<polygon opacity="0.5" fill="#FFFFFF" points="97.5,61.3 108.9,66.3 108.9,66.3 88.2,73.2 "/>
<polygon opacity="0.6" fill="#FFFFFF" points="103.6,86 105.7,81.7 112,84.5 112.1,84.9 113,99.1 103.6,86 "/>
<polygon opacity="0.5" fill="#FFFFFF" points="108.6,70.1 112,84.5 98.6,71.6 "/>
<polygon opacity="0.5" fill="#FFFFFF" points="75.4,113.6 81.3,112 82.2,112 85.4,109.9 85.4,109.9 89.3,107.2 95.4,105.1 79.8,116 
	75,116 75,113.5 "/>
<polyline opacity="0.6" fill="#FFFFFF" points="103.6,102.3 97,89.3 113,99.1 95.4,105 88,101.1 86.1,101 97.8,98.6 92,94.8 
	99.4,98 97,89.3 "/>
<polygon opacity="0.4" fill="#FFFFFF" points="75.7,82.2 87.3,92 77.9,100.9 "/>
<polygon opacity="0.2" fill="#FFFFFF" points="75.7,82.2 75.7,82.2 84.6,77.7 82.5,84.9 82.5,84.9 82.5,86.1 "/>
<path opacity="0.1" fill="#FFFFFF" d="M85.8,86C85.7,86,85.7,86,85.8,86l-2.2-0.7l0.2,0.1L85.8,86z"/>
<path opacity="0.2" fill="#FFFFFF" d="M82.5,84.9l0.2,0.2l4.2,2.4c0,0,3-1.9,3.1-1.9l3.5-3l0.6-2.2l-6.3-1.2l10.3-0.8l-1.1,11
	L87.3,92L82.5,84.9z"/>
<polygon opacity="0.1" fill="#FFFFFF" points="82.5,84.9 87.3,92 82.5,86.1 "/>
<line fill="#FFFFFF" x1="82.5" y1="84.9" x2="84.4" y2="84"/>
<polygon fill="#FFFFFF" points="82.5,84.9 85.1,80.4 85.1,80.4 87.8,79.2 93.9,80.5 93.5,82.8 90,86 85.7,86 83.8,85.3 "/>
<polygon fill="#FFFFFF" points="85.1,80.4 85.1,80.4 85.1,80.4 "/>
<polygon opacity="0.9" fill="#FFFFFF" points="86.1,101 88,101.1 89.3,107.2 81,103.6 "/>
<path opacity="0.9" fill="#FFFFFF" d="M75.3,111.8c0-0.1,0-2.9,0-2.9l3.2-1.9l2.5-3.4l4.3,6.3l-3.2,2.1l-0.9,0L75.3,111.8z"/>
<polygon opacity="0.9" fill="#FFFFFF" points="97.5,61.3 96.2,44 111.8,23.4 110.1,51.8 "/>
<polygon opacity="0.4" fill="#FFFFFF" points="82.5,84.9 84.5,78.1 84.6,77.8 84.6,77.7 87.8,79.2 85.1,80.4 "/>
<polygon opacity="0.1" fill="#FFFFFF" points="97.7,36.3 97.7,29.5 111,23.5 111,23.5 "/>
<polygon opacity="0.4" fill="#FFFFFF" points="87.4,40.8 98.2,29.5 98.1,36 "/>
<polygon opacity="0.1" fill="#FFFFFF" points="92.7,46.8 87.4,40.8 98.1,36 "/>
<polygon opacity="0.4" fill="#FFFFFF" points="75.3,43.7 87.4,40.8 92.7,46.8 "/>
<polygon opacity="0.1" fill="#FFFFFF" points="75,52.4 75,43 75.3,43 92.5,46.4 92.7,46.6 75,52.7 "/>
<polygon opacity="0.7" fill="#FFFFFF" points="75,53 75,52.7 81.8,62.3 75,70.8 "/>
<polygon opacity="0.4" fill="#FFFFFF" points="76.6,68.8 90.2,51.8 97.5,61.3 "/>
<polygon opacity="0.6" fill="#FFFFFF" points="91.7,50.1 90.2,51.8 91.6,49 92.3,47.6 97.8,36.4 111.5,23.5 111.8,23.4 96.2,44.6 
	"/>
<polygon opacity="0.4" fill="#FFFFFF" points="90.3,51.8 97.5,61.3 90.3,51.8 "/>
<polygon opacity="0.5" fill="#FFFFFF" points="96.2,44 97.5,61.3 90.2,51.8 "/>
<polygon opacity="0.6" fill="#FFFFFF" points="110.1,51.8 108.9,66.3 97.5,61.3 "/>
<polygon opacity="0.2" fill="#FFFFFF" points="88.2,73.2 88.2,73.2 88.2,73.2 "/>
<polygon opacity="0.2" fill="#FFFFFF" points="84.4,74.8 84.4,74.8 83.8,66.3 97.5,61.3 84.6,77.7 "/>
<polygon opacity="0.2" fill="#FFFFFF" points="83.8,66.1 84,66 83.8,66.1 "/>
<polygon opacity="0.1" fill="#FFFFFF" points="88.2,73.2 97.8,78.3 87.8,79.2 "/>
<polygon opacity="0.2" fill="#FFFFFF" points="88.2,73.2 88.2,73.2 88.2,73.2 "/>
<path opacity="5.000000e-02" fill="#FFFFFF" d="M85.7,86C85.7,86,85.7,86,85.7,86H90c-0.1,0-3.1,1.7-3.1,1.7l-4.2-2.5l-0.2,0
	L85.7,86z"/>
<line fill="#A32845" x1="83.9" y1="84.2" x2="83.9" y2="84.2"/>
<polygon opacity="0.4" fill="#FFFFFF" points="108.9,66.3 108.9,66.3 108.9,66.3 "/>
<polygon opacity="0.4" fill="#FFFFFF" points="88.2,73.2 108.9,66.3 108.9,66.3 98.6,71.6 88.2,73.2 "/>
<polygon opacity="0.4" fill="#FFFFFF" points="88.2,73.2 88.2,73.2 88.2,73.2 "/>
<polygon opacity="0.4" fill="#FFFFFF" points="112,84.5 112,84.5 112,84.5 "/>
<polygon opacity="0.7" fill="#FFFFFF" points="105.7,81.7 98.1,78.4 98.6,71.6 112,84.5 112,84.5 105.7,81.7 "/>
<polygon opacity="0.4" fill="#FFFFFF" points="98.6,72 108.6,70.5 98.6,72 "/>
<polygon opacity="0.4" fill="#FFFFFF" points="108.9,66.2 108.6,70 108.9,66.2 "/>
<polygon opacity="0.8" fill="#FFFFFF" points="108.9,66.3 108.6,70.1 98.6,71.6 "/>
<polygon opacity="0.8" fill="#FFFFFF" points="114.2,106.2 95.4,105 113,99.1 "/>
<polygon opacity="0.8" fill="#FFFFFF" points="103.6,86 97,89.3 98.1,78.4 105.7,81.7 "/>
<polygon opacity="0.8" fill="#FFFFFF" points="104.8,94.1 103.6,86 113,99.1 97,89.3 "/>
<polygon opacity="0.4" fill="#FFFFFF" points="105.7,81.7 105.7,81.7 98.1,78.4 "/>
<polygon opacity="0.8" fill="#FFFFFF" points="118,94.9 118,94.9 120.5,92.8 "/>
<polygon opacity="0.4" fill="#FFFFFF" points="120.5,92.8 113,99.1 112.1,84.9 "/>
<polygon opacity="0.4" fill="#FFFFFF" points="103.6,86 103.6,86 103.6,86 "/>
<polygon opacity="0.5" fill="#FFFFFF" points="103.6,86 104.8,94.1 97,89.3 103.6,86 "/>
<polygon opacity="0.4" fill="#FFFFFF" points="91.7,94.7 87.3,92 97,89.3 99.4,98 91.9,94.8 91.7,94.7 "/>
<polygon opacity="0.4" fill="#FFFFFF" points="91.7,94.7 99.4,98.1 97,89.3 103.6,102.3 "/>
<polygon opacity="0.4" fill="#FFFFFF" points="91.7,94.7 91.9,94.8 97.8,98.6 86.1,101 86.1,101 "/>
<polygon opacity="0.4" fill="#FFFFFF" points="86.1,101 86.1,101 86.1,101 "/>
<polygon opacity="0.4" fill="#FFFFFF" points="91.7,94.7 91.9,94.8 91.7,94.7 "/>
<polygon opacity="0.4" fill="#FFFFFF" points="88,101.1 95.4,105 89.3,107.2 "/>
<polygon opacity="0.5" fill="#FFFFFF" points="75.7,82.2 82.5,86.1 87.3,92 75.7,82.2 "/>
<polygon opacity="0.5" fill="#FFFFFF" points="81.7,75.9 84.6,77.8 75.7,82.1 "/>
<polygon opacity="0.5" fill="#FFFFFF" points="84.6,77.7 84.6,77.8 84.6,77.7 "/>
<polygon opacity="0.3" fill="#FFFFFF" points="84.4,74.8 84.6,77.7 81.7,75.9 "/>
<polygon opacity="0.4" fill="#FFFFFF" points="84.4,74.8 84.6,77.7 84.4,74.8 "/>
<path opacity="0.5" fill="#FFFFFF" d="M83.7,63.5"/>
<polygon opacity="0.5" fill="#FFFFFF" points="92.7,46.8 92.7,46.8 92.7,46.8 "/>
<polygon opacity="0.8" fill="#FFFFFF" points="87.3,92.1 86.1,101 80.9,103 80.7,103.4 77.9,101 "/>
<polygon opacity="0.4" fill="#FFFFFF" points="86.1,101 81,103.6 80.7,103.4 80.9,103 "/>
<polygon fill="#F9F9F9" points="89.2,107.2 89.3,107.2 85.4,109.9 85.3,109.9 89.2,107.2 "/>
<polygon fill="#F9F9F9" points="89.2,107.2 89.2,107.2 85.3,109.9 81,103.6 "/>
<line opacity="0.4" fill="#FFFFFF" x1="75.2" y1="43.7" x2="75.2" y2="43.7"/>
<line opacity="0.4" fill="#FFFFFF" x1="75.1" y1="43.7" x2="75.1" y2="43.7"/>
<line opacity="0.4" fill="#FFFFFF" x1="74.8" y1="43.7" x2="74.8" y2="43.7"/>
<path opacity="0.2" fill="#FFFFFF" d="M74.7,53"/>
<path opacity="0.2" fill="#FFFFFF" d="M75,52.5"/>
<line opacity="0.4" fill="#FFFFFF" x1="75.1" y1="43.7" x2="75.1" y2="43.7"/>
<path opacity="0.5" fill="#FFFFFF" d="M74.9,52.7"/>
<path opacity="0.4" fill="#FFFFFF" d="M74.6,43.7"/>
<line opacity="0.4" fill="#FFFFFF" x1="74.8" y1="43.7" x2="74.8" y2="43.7"/>
<line opacity="0.4" fill="#FFFFFF" x1="74.9" y1="43.7" x2="74.9" y2="43.7"/>
<line opacity="0.4" fill="#FFFFFF" x1="75.2" y1="43.7" x2="75.2" y2="43.7"/>
<path opacity="0.2" fill="#FFFFFF" d="M75.3,53"/>
<path opacity="0.2" fill="#FFFFFF" d="M75,52.5"/>
</svg>
